<?xml version="1.0" encoding="UTF-8" standalone="no"?>
<svg
   xmlns:dc="http://purl.org/dc/elements/1.1/"
   xmlns:cc="http://creativecommons.org/ns#"
   xmlns:rdf="http://www.w3.org/1999/02/22-rdf-syntax-ns#"
   xmlns:svg="http://www.w3.org/2000/svg"
   xmlns="http://www.w3.org/2000/svg"
   xmlns:sodipodi="http://sodipodi.sourceforge.net/DTD/sodipodi-0.dtd"
   xmlns:inkscape="http://www.inkscape.org/namespaces/inkscape"
   width="24"
   height="24"
   preserveAspectRatio="xMidYMid meet"
   viewBox="0 0 24 24"
   style="-ms-transform: rotate(360deg); -webkit-transform: rotate(360deg); transform: rotate(360deg);"
   version="1.1"
   id="svg14"
   sodipodi:docname="1time.svg"
   inkscape:version="0.92.4 (5da689c313, 2019-01-14)">
  <metadata
     id="metadata20">
    <rdf:RDF>
      <cc:Work
         rdf:about="">
        <dc:format>image/svg+xml</dc:format>
        <dc:type
           rdf:resource="http://purl.org/dc/dcmitype/StillImage" />
        <dc:title></dc:title>
      </cc:Work>
    </rdf:RDF>
  </metadata>
  <defs
     id="defs18" />
  <sodipodi:namedview
     pagecolor="#ffffff"
     bordercolor="#666666"
     borderopacity="1"
     objecttolerance="10"
     gridtolerance="10"
     guidetolerance="10"
     inkscape:pageopacity="0"
     inkscape:pageshadow="2"
     inkscape:window-width="1920"
     inkscape:window-height="1017"
     id="namedview16"
     showgrid="false"
     inkscape:zoom="35.416667"
     inkscape:cx="15.752253"
     inkscape:cy="12.807568"
     inkscape:window-x="-8"
     inkscape:window-y="-8"
     inkscape:window-maximized="1"
     inkscape:current-layer="svg14" />
  <path
     d="M4.649 4.822L12 2.065l7.351 2.757a1 1 0 0 1 .649.936v4.307c0 3.177-1.372 6.2-3.763 8.292L12 22.065l-4.237-3.708A11.019 11.019 0 0 1 4 10.065V5.758a1 1 0 0 1 .649-.936z"
     id="path10"
     style="fill:#004da0;fill-opacity:1;stroke:#000000;stroke-opacity:0.40845069;paint-order:stroke markers fill"
     fill="#626262" />
  <path
     inkscape:connector-curvature="0"
     style="fill:#e69c00;fill-opacity:0.99065396;stroke:#000000;stroke-width:0.36954436;stroke-miterlimit:4;stroke-dasharray:none;stroke-opacity:0.48235294"
     d="m 14.64187,11.993086 0.778908,-0.790794 a 0.36744051,0.37287272 0 1 1 0.51964,0.527321 l -0.779275,0.79005 0.908908,0.922719 1.626857,-0.110305 a 0.36723597,0.37266515 0 0 0 0.342263,-0.346579 l 0.108331,-1.651657 -2.533193,-2.5706428 a 2.5706518,2.608656 0 1 0 -2.077456,2.1081668 l 1.105381,1.121349 z M 13.343692,8.5671758 a 0.7344917,0.74535033 0 1 1 -1.038913,-1.0538969 0.7344917,0.74535033 0 0 1 1.038913,1.0538969 z"
     id="path2" />
  <path
     d="m 11.284353,11.166365 a 0.76921463,0.78063488 0 0 1 0,1.103985 l -1.6317498,1.655977 a 0.76921463,0.78063488 0 0 1 -1.0878344,0 L 5.8451839,11.166365 a 0.76921463,0.78063488 0 0 1 0,-1.103984 L 7.4769346,8.4064049 a 0.76921463,0.78063488 0 0 1 1.0878342,0 L 9.9245612,7.0264245 A 1.9230368,1.9515874 0 1 1 12.644145,9.786386 Z M 8.0208535,11.718356 A 0.76921474,0.78063499 0 1 0 9.1086849,10.614373 0.76921474,0.78063499 0 0 0 8.0208535,11.718356 Z M 10.740435,10.614373 12.100227,9.2343939 A 1.1538221,1.1709525 0 1 0 10.468478,7.5784173 L 9.1086849,8.9583979 Z"
     id="path2-2"
     inkscape:connector-curvature="0"
     style="fill:#626262;stroke:#000000;stroke-width:0.38745186;stroke-opacity:0.48356808" />
</svg>
